<svg width="24" height="24" viewBox="0 0 24 24" version="1.1" xmlns="http://www.w3.org/2000/svg" xmlns:xlink="http://www.w3.org/1999/xlink">
  <title>search</title>
  <desc>Created using Figma</desc>
  <g id="Canvas" transform="translate(-2788 12096)">
    <g id="icon/small/search">
      <g id="6F">
        <use xlink:href="#path0_fill" transform="translate(2792 -12092)" fill="#323A44"/>
      </g>
    </g>
  </g>
  <defs>
    <path id="path0_fill" fill-rule="evenodd" d="M 9.51077 11.5858C 8.10686 11.5858 6.83338 11.0225 5.90252 10.1077C 5.90124 10.1077 5.90082 10.1035 5.89955 10.1035C 5.89743 10.1035 5.89447 10.0993 5.89235 10.0993C 4.9437 9.16332 4.35376 7.86317 4.35376 6.43172C 4.35376 3.58577 6.66736 1.27344 9.51077 1.27344C 12.3542 1.27344 14.6678 3.58577 14.6678 6.43172C 14.6678 9.27344 12.3542 11.5858 9.51077 11.5858ZM 9.51085 0C 5.96697 0 3.08333 2.88407 3.08333 6.4288C 3.08333 7.9873 3.64277 9.41874 4.56983 10.5326L 0.18613 14.9158C -0.0620434 15.1657 -0.0620434 15.5638 0.18613 15.8137C 0.310217 15.9365 0.472843 16 0.635469 16C 0.798094 16 0.960297 15.9365 1.08438 15.8137L 5.4757 11.4219C 6.57978 12.3155 7.98327 12.8534 9.51085 12.8534C 13.0552 12.8534 15.9384 9.9693 15.9384 6.4288C 15.9384 2.88407 13.0552 0 9.51085 0Z"/>
  </defs>
</svg>
